<svg xmlns="http://www.w3.org/2000/svg" viewBox="0 0 1439 586"><defs><style>.cls-1{fill:#93bf50;}.cls-2{fill:#ffd6e3;stroke:#f7f5f5;stroke-miterlimit:10;stroke-width:6px;}</style></defs><g id="ny_is" data-name="ny is"><path class="cls-1" d="M12,503.62l17.91-5.16V278.54L12,273.38v-5.15H97v5.15l-17.91,5.16v107.9l73.13-102.75-22.39-10.31v-5.15h56.71v5.15L162.7,283.69l-52.23,73.88,80.58,140.89L206,503.62v5.15H164.19q-13.42,0-22.83-7.73T123.9,479.56l-44.77-79v97.93L97,503.62v5.15H12Z"/><path class="cls-1" d="M242.69,489.53l-12.84,19.24H219.41l17-25.77q-13.74-16.83-21.34-40.55t-7.61-53.95q0-39.86,11.94-68t33.87-42.78q21.93-14.61,51.18-14.61,37,0,61.79,24.4l12.83-19.24h10.45l-17.32,26.11q29.25,35.4,29.25,94.16,0,39.87-11.93,68t-33.88,42.78q-21.93,14.61-51.19,14.61Q267.46,513.93,242.69,489.53ZM343.27,322.18q-6-27.15-16.42-39.69t-22.39-12.55q-11.62,0-21.63,11.34t-16.57,37.8q-6.57,26.48-6.56,69.42,0,32,3.58,54.29ZM326.1,495.71q10-11.34,16.57-37.8t6.56-69.41a386.72,386.72,0,0,0-3.58-53.95L265.37,455.16q5.65,27.15,16.26,39.52t22.83,12.37Q316.12,507.05,326.1,495.71Z"/><path class="cls-1" d="M429.81,503.62l17.91-5.16V278.54l-17.91-5.16v-5.15H510.4q45.36,0,66.7,16.66t21.34,43.47q0,18.56-9.25,29.9a55.51,55.51,0,0,1-23.58,16.84,91.28,91.28,0,0,1-32.83,6.53v1.71q21.78,1,37.91,7.56A64.53,64.53,0,0,1,598,410.15q10.9,13.07,10.9,33.33,0,30.58-21.79,47.94t-70.73,17.35H429.81ZM510.4,378.19a30,30,0,0,0,18.35-6.36q8.5-6.34,13.73-17.87a61.25,61.25,0,0,0,5.23-25.6q0-15.12-5.23-26.8t-13.73-18.21a29.57,29.57,0,0,0-18.35-6.53H497V378.19Zm6,122q18.5,0,30.14-15.12t11.64-41.58q0-26.46-11.64-41.58t-30.14-15.12H497v113.4Z"/><path class="cls-1" d="M681.4,503.62l17.91-5.16V278.54l-17.91-5.16v-5.15H841.07v61.85h-9A47.22,47.22,0,0,1,822.27,317a86.52,86.52,0,0,1-9.55-40.2H748.55V385.06h34.33a83.48,83.48,0,0,1,7.75-24.4,69.58,69.58,0,0,1,5.67-10h9V428h-9a69.14,69.14,0,0,1-5.67-10,83.38,83.38,0,0,1-7.75-24.4H748.55V500.18h70.14A86.59,86.59,0,0,1,828.24,460a47.17,47.17,0,0,1,9.85-13.05H847v61.85H681.4Z"/><path class="cls-1" d="M900.76,326.64V493.31l23.88,10.31v5.15H867.93v-5.15l23.88-10.31V280.25l-20.89-6.87v-5.15h31.33q15.82,0,24.78,6.52a79.84,79.84,0,0,1,17,17.53l95.5,128.86V283.69l-23.87-10.31v-5.15h56.71v5.15l-23.88,10.31V513.93h-9Z"/><path class="cls-1" d="M1295.32,502.93a54.26,54.26,0,0,1-14-11.34,57.46,57.46,0,0,1-10.45,14.09q-5.37,4.47-6,4.81h-7.47V445.2h11.94a116.29,116.29,0,0,0,12.54,30.24q18.19,29.9,47.15,29.89,17,0,27.16-11.68t10.15-31.27a36.32,36.32,0,0,0-5.82-20.27,66.47,66.47,0,0,0-14.47-15.81q-8.67-6.87-24.18-17.18a317.23,317.23,0,0,1-31.93-23,90.86,90.86,0,0,1-20.9-25.94q-8.65-15.63-8.65-36.94a57.56,57.56,0,0,1,8.21-30.41q8.21-13.57,24.62-21.65t40.29-8.08q17.31,0,34.62,11.34a69.8,69.8,0,0,1,13.13,11,61.41,61.41,0,0,1,10.45-14.09q5.37-4.47,6-4.81h7.46V331.8h-11.94a109.42,109.42,0,0,0-11.64-29.9,72.18,72.18,0,0,0-17.76-21.65,37.56,37.56,0,0,0-24.32-8.59q-11.64,0-20,10.65t-8.35,27.15a41.77,41.77,0,0,0,6.41,22.85,71.92,71.92,0,0,0,15.82,17.7q9.41,7.56,25.52,18.21a357.64,357.64,0,0,1,30.44,22A84.52,84.52,0,0,1,1409,414.1q8.06,14.26,8.06,32.82a64.17,64.17,0,0,1-9.25,33.84q-9.25,15.3-27.76,24.23T1335,513.93A76.36,76.36,0,0,1,1295.32,502.93Z"/><polyline class="cls-2" points="1148.43 270.78 1186.16 568 1251.59 268.2"/><path class="cls-2" d="M1152,166.74c-22.2,13.13-32.24,39.86-25,62.49,9,28.15,42.84,44.07,68.51,29.94s26.37-52.24,17.18-73.33a51.11,51.11,0,0,0-6.79-11.3"/><path class="cls-2" d="M1191.74,110.07c-16.28,3.21-37.17,15.31-41.38,35.07C1144,175,1177.5,214,1212.79,209.93c26.77-3.12,52-30.78,48.23-58.7C1256.83,120.56,1219.59,104.57,1191.74,110.07Z"/><path class="cls-2" d="M1224.8,165c-14.76,3.11-33.74,14.6-37.65,33.18-5.92,28.09,24.2,64.58,56.18,60.52,24.25-3.08,47.27-29.22,44-55.43C1283.67,174.52,1250,159.71,1224.8,165Z"/><path d="M498.37,106.18q-3.69,10-8.43,20a113.08,113.08,0,0,1-10.59,18,55.72,55.72,0,0,1-12.9,13A25.12,25.12,0,0,1,451.1,162a25.81,25.81,0,0,1-12.71-3.65,31.58,31.58,0,0,1-10.27-10.17,54.14,54.14,0,0,1-6.8-16.28,88.34,88.34,0,0,1-2.39-22.12A124.74,124.74,0,0,1,422,81.68a105,105,0,0,1,8.12-22.94A81.87,81.87,0,0,1,442,40.94a74.39,74.39,0,0,1,14.36-12.69A58.44,58.44,0,0,1,472,20.78a47.46,47.46,0,0,1,15.62-2.09,39.57,39.57,0,0,1,16.06,4.17,40.77,40.77,0,0,1,13.93,11.52,59.66,59.66,0,0,1,9.76,19.25Q531,65.22,531,80.9a140.63,140.63,0,0,1-2.48,24.28,181.42,181.42,0,0,1-8.35,29.58q-6.89,18.81-11.92,32T499.85,189q-3.32,9-4.92,14.29a31.93,31.93,0,0,0-1.62,8.5A6.73,6.73,0,0,0,495,216.6a6.43,6.43,0,0,0,4.77,1.89q4.19.09,9.89-3.31a67.16,67.16,0,0,0,12.61-10.32,132.9,132.9,0,0,0,12.4-14.25q6.12-8.07,12-17.23t11.3-19q5.46-9.87,10.32-19.67t9-19.2q4.15-9.39,7.43-17.65-1.55-7.87-2.23-15t-.65-13.48a96.82,96.82,0,0,1,.93-13.69,52.59,52.59,0,0,1,2.38-10.06,17.45,17.45,0,0,1,3.5-6.18,5.8,5.8,0,0,1,4.32-2,4.85,4.85,0,0,1,3.43,1.54,11.44,11.44,0,0,1,2.39,3.79,22.86,22.86,0,0,1,1.4,5.21,35.87,35.87,0,0,1,.45,5.83,72.14,72.14,0,0,1-1,10.72,112.55,112.55,0,0,1-3.54,14.84q-2.16,7.27-6.08,17.56t-9.23,22.22q-5.31,12-11.73,24.69t-13.66,24.91q-7.25,12.15-15.08,23a155.78,155.78,0,0,1-15.85,18.84Q516,219,509.94,222.14t-10.13,3.05a10.62,10.62,0,0,1-6.2-1.92,13.24,13.24,0,0,1-4-4.83,24,24,0,0,1-2.1-6.69,44.29,44.29,0,0,1-.6-7.47,57.63,57.63,0,0,1,.91-9.59,52.8,52.8,0,0,1,2.74-9.8q2.16-5.64,5.43-13.78t7-17.79q3.71-9.65,7.47-20.37t6.78-21.46q3-10.74,4.91-21.06a109.11,109.11,0,0,0,2-19.17,59,59,0,0,0-2.34-16.75,46.78,46.78,0,0,0-7-14.58,37.68,37.68,0,0,0-11.53-10.45,32.53,32.53,0,0,0-15.86-4.23A39.94,39.94,0,0,0,471.81,28a52,52,0,0,0-14.07,8.33,67.26,67.26,0,0,0-12,13.06,88.91,88.91,0,0,0-9.36,16.85,104,104,0,0,0-6.09,19.7A108,108,0,0,0,428,107.55a76.52,76.52,0,0,0,2,18.83,46.06,46.06,0,0,0,5.59,13.72,26.27,26.27,0,0,0,8.18,8.41,19.09,19.09,0,0,0,9.78,3,21,21,0,0,0,11.16-3.15,43.21,43.21,0,0,0,11-9.6A91.55,91.55,0,0,0,486,123.4a160.6,160.6,0,0,0,9.18-20.33Zm89.21-16q2.71-7.14,4.44-12.79t2.69-10a74.53,74.53,0,0,0,1.34-7.74,56.29,56.29,0,0,0,.38-5.87c0-1,0-2.09-.14-3.23a15.94,15.94,0,0,0-.58-3.17A6.73,6.73,0,0,0,594.54,45a2.57,2.57,0,0,0-2-.93c-.95,0-1.83.65-2.62,2a21.9,21.9,0,0,0-2.08,5.51,58.06,58.06,0,0,0-1.38,8.06,98.37,98.37,0,0,0-.52,9.92c0,3,.1,6.28.35,9.74S587,86.4,587.58,90.2Z"/><path d="M590.27,177.13c-.11,1-.19,2-.25,3s-.09,2-.09,3a43.52,43.52,0,0,0,.79,8.68,27.51,27.51,0,0,0,2.41,7.26,14.32,14.32,0,0,0,4,5,9.13,9.13,0,0,0,5.49,1.9q10.35.25,20-10.78T642,160l2.67,3.85A166.1,166.1,0,0,1,634,187.07a86.06,86.06,0,0,1-10.78,15.24,37,37,0,0,1-10.51,8.35,21,21,0,0,1-9.81,2.42,19.68,19.68,0,0,1-14.15-6.91,28.14,28.14,0,0,1-5.25-9.6,45.25,45.25,0,0,1-2-14.85,81.65,81.65,0,0,1,2.09-18.22,95.12,95.12,0,0,1,5.33-16.24,82.37,82.37,0,0,1,7.49-13.67,73.26,73.26,0,0,1,8.54-10.48,41.54,41.54,0,0,1,8.45-6.69,14.34,14.34,0,0,1,7.28-2.3,9.93,9.93,0,0,1,4.18,1.11,11.08,11.08,0,0,1,3.82,3.25,17.36,17.36,0,0,1,2.74,5.76,29.63,29.63,0,0,1,1,8.49,39.61,39.61,0,0,1-2,12.54A45.6,45.6,0,0,1,625.21,156a46.18,46.18,0,0,1-7.54,8.79,51.43,51.43,0,0,1-9,6.56,50,50,0,0,1-9.42,4.2A30.13,30.13,0,0,1,590.27,177.13Zm.66-5.42a29.46,29.46,0,0,0,10-3.31,39.1,39.1,0,0,0,8.56-6.31,53.2,53.2,0,0,0,6.95-8.24,58.55,58.55,0,0,0,5.14-9.11,57.92,57.92,0,0,0,3.2-8.9,31.06,31.06,0,0,0,1.14-7.69,11.15,11.15,0,0,0-1.12-5.46c-.76-1.36-1.66-2.06-2.72-2.09-2.32,0-4.93,1.21-7.84,3.8a51,51,0,0,0-8.74,10.79,106.13,106.13,0,0,0-8.25,16.31A123.74,123.74,0,0,0,590.93,171.71Z"/><path d="M671.94,203.58a40.54,40.54,0,0,1-8.52,6.95,15.88,15.88,0,0,1-8.43,2.52,14.36,14.36,0,0,1-6-1.54,15,15,0,0,1-5.43-4.74,26.44,26.44,0,0,1-3.95-8.63A47.9,47.9,0,0,1,638.12,185a76,76,0,0,1,2.22-18.16,84.21,84.21,0,0,1,5.76-16.11,80.08,80.08,0,0,1,8.2-13.52,68.63,68.63,0,0,1,9.49-10.34,43.08,43.08,0,0,1,9.71-6.53,19.64,19.64,0,0,1,8.78-2.19,15.08,15.08,0,0,1,6.59,1.48,16.6,16.6,0,0,1,7.59,7.7,40.74,40.74,0,0,1,1.8,4.34l4.31-8.87,2.6,2.84c0,.08-.43,1.4-1.29,4s-2,6-3.36,10.23-3,9.26-4.85,15S691.9,166.59,689.9,173s-4,13.1-6.1,20-4,13.6-5.9,20.22q7.23-6.41,12.71-12.35a123.23,123.23,0,0,0,9.81-12,114.16,114.16,0,0,0,7.84-12.71q3.5-6.62,6.78-14.38l2.91,3.61A139.74,139.74,0,0,1,711,180.42a112.87,112.87,0,0,1-8.67,13.7A153.48,153.48,0,0,1,690.77,208q-6.63,7.11-15.76,15.62-7.63,29.28-14.67,48.4T647,302.25q-6.25,11.1-11.6,15.53t-9.63,4.32a11.7,11.7,0,0,1-3.75-.78,9.11,9.11,0,0,1-3.74-2.81,16.54,16.54,0,0,1-2.86-5.63,30.39,30.39,0,0,1-1.1-9.13,64.38,64.38,0,0,1,3.61-20.9,90.06,90.06,0,0,1,10.28-20.37,137.94,137.94,0,0,1,16.45-20,260.85,260.85,0,0,1,22-19.84q1.53-5.4,2.81-10.24T671.94,203.58Zm-46.1,112.08c2,0,4.09-1.09,6.26-3.4a47.71,47.71,0,0,0,6.6-9.51,136.29,136.29,0,0,0,6.63-14.07q3.27-8,6.47-17.11t6.13-18.63q2.93-9.54,5.58-18.7a131.81,131.81,0,0,0-20.2,20.06,146.29,146.29,0,0,0-13.73,20.1,96.15,96.15,0,0,0-7.78,17.39q-2.44,7.79-2.46,11.95a21.65,21.65,0,0,0,1.38,8.51A5.28,5.28,0,0,0,625.84,315.66Zm50.27-125.89q2.16-6.39,4.29-12.6t4.4-12.41q2.28-6.21,4.88-12.72t5.79-13.52a18.8,18.8,0,0,0-.78-3.94,15.54,15.54,0,0,0-1.72-3.77,10.05,10.05,0,0,0-2.83-2.91,7.35,7.35,0,0,0-4.1-1.23,19.15,19.15,0,0,0-6.13,1,25.67,25.67,0,0,0-7.25,3.75,43.5,43.5,0,0,0-7.74,7.27,65.26,65.26,0,0,0-7.68,11.58,105.82,105.82,0,0,0-8.46,20.47,68.59,68.59,0,0,0-3,18.71q0,8.22,2.55,12.51a8.21,8.21,0,0,0,7.09,4.41q4.74.1,10.1-4.44A62.73,62.73,0,0,0,676.11,189.77Z"/><path d="M778,126.31c-.69,2.17-1.67,5-2.92,8.53s-2.6,7.37-4,11.6-2.9,8.63-4.37,13.23-2.81,9.1-4,13.5-2.2,8.54-3,12.45a53,53,0,0,0-1.19,9.89q0,4.05,1,5.27A3.22,3.22,0,0,0,762,202a7,7,0,0,0,4.71-2,29.24,29.24,0,0,0,4.76-5.45,69.35,69.35,0,0,0,4.58-7.6q2.24-4.24,4.19-8.56t3.55-8.26l2.72-6.7,2.83,3.6q-1.36,4-3.2,8.65t-4,9.33q-2.21,4.68-4.75,9.05a54.89,54.89,0,0,1-5.37,7.71,25.72,25.72,0,0,1-5.91,5.3,11.14,11.14,0,0,1-6.33,1.87,7.45,7.45,0,0,1-6.93-4.71,27.31,27.31,0,0,1-2.16-11.81c0-.34,0-1.07,0-2.21a20.89,20.89,0,0,1,.21-2.71,102.55,102.55,0,0,1-7.61,13,46,46,0,0,1-7,8.06,20.73,20.73,0,0,1-6.49,4.08,16.41,16.41,0,0,1-6,1.06,11.07,11.07,0,0,1-5.64-1.71,15.1,15.1,0,0,1-4.64-4.73,25,25,0,0,1-3.13-7.53,41.72,41.72,0,0,1-1.1-10.27A79,79,0,0,1,711.47,173a91.15,91.15,0,0,1,7.24-19.87,89.65,89.65,0,0,1,9.12-15.33,59.46,59.46,0,0,1,9.29-10,31.28,31.28,0,0,1,8.68-5.3,19.87,19.87,0,0,1,7.35-1.47q7.27.18,11,4.12t4.45,11.92q1.59-3.12,3.35-6.24c1.16-2.08,2.36-4.2,3.58-6.36Zm-24.47,47.46q1-2.62,2.56-6.7t3.2-8.39c1.12-2.89,2.21-5.66,3.27-8.34s2-4.92,2.8-6.76c0-.75-.06-2-.18-3.67a21.83,21.83,0,0,0-1-5.14,11.83,11.83,0,0,0-2.75-4.56,7.33,7.33,0,0,0-5.29-2,15,15,0,0,0-5.49,1.07,23.92,23.92,0,0,0-6.5,3.9,46.53,46.53,0,0,0-7.11,7.35A76.68,76.68,0,0,0,729.7,152a108.77,108.77,0,0,0-8.51,20.85,71,71,0,0,0-3.05,19q0,7.2,2,11.17T726,207a12.38,12.38,0,0,0,8.15-2.91,35.49,35.49,0,0,0,7.15-7.86,95.54,95.54,0,0,0,6.37-10.78Q750.68,179.52,753.55,173.77Z"/><path d="M852.61,146.53a53.94,53.94,0,0,1-1.23,11,109.91,109.91,0,0,1-3.06,11.18q-1.85,5.58-3.92,11t-3.92,10.4q-1.85,5-3,9.6a34,34,0,0,0-1.23,8.38c0,1.94.25,3.25.78,3.94a2.24,2.24,0,0,0,1.73,1.05q3,.07,6.74-4.58a79.53,79.53,0,0,0,7.6-11.77q3.86-7.11,7.69-15.49t7-15.9l2.83,3.61c-.43,1-1.2,3-2.32,6s-2.51,6.35-4.16,10.14-3.49,7.76-5.54,11.88a97.54,97.54,0,0,1-6.57,11.35,46.64,46.64,0,0,1-7.19,8.5q-3.69,3.31-7.4,3.23a7,7,0,0,1-3.87-1.22,10,10,0,0,1-3-3.24,17.88,17.88,0,0,1-1.91-4.78,22.58,22.58,0,0,1-.69-5.77,45.75,45.75,0,0,1,1.43-10.65q1.41-5.72,3.49-11.74t4.56-12.09q2.48-6.07,4.56-11.59t3.48-10.22a29.83,29.83,0,0,0,1.42-8.12,15,15,0,0,0-1.28-6.61q-1.29-2.68-3.66-2.74c-1.68,0-3.64,1-5.86,3.21a58.82,58.82,0,0,0-7.47,9.62q-4.14,6.36-9,15.66T808.92,180.9q-3.28,6.87-6.39,13.25c-.9,1.83-1.81,3.71-2.71,5.62s-1.81,3.82-2.71,5.69-1.76,3.67-2.55,5.38S793,214,792.4,215.28l-6.93-4.72,9.33-20.13q2-4.26,4.08-9.14T803,171.21q2-5.19,3.88-10.46t3.44-10.29a109.16,109.16,0,0,0,3.22-12.5,48.59,48.59,0,0,0,.91-8c0-2.28-.25-3.78-.77-4.51a2.67,2.67,0,0,0-2.21-1.13c-1,0-2.15.78-3.45,2.39a41.72,41.72,0,0,0-4,6.23q-2.07,3.81-4.18,8.62t-4,9.58q-1.92,4.76-3.6,9c-1.11,2.84-2,5.13-2.79,6.88l-2.83-3.6q4.08-10,7.39-18.35t6.39-14.33a45.71,45.71,0,0,1,6-9.28c1.94-2.18,4-3.25,6.14-3.2a5.87,5.87,0,0,1,3.36,1.22,10.1,10.1,0,0,1,2.83,3.41,20.92,20.92,0,0,1,1.91,5.42,34.31,34.31,0,0,1,.68,7.35,50.79,50.79,0,0,1-.51,6.82,83.71,83.71,0,0,1,6.52-8.83,44.16,44.16,0,0,1,5.56-5.49,18.43,18.43,0,0,1,4.67-2.86,10.23,10.23,0,0,1,3.88-.8,8.94,8.94,0,0,1,3.47,1,9.9,9.9,0,0,1,3.7,3.38,22.06,22.06,0,0,1,2.93,6.7A40.4,40.4,0,0,1,852.61,146.53Z"/></g></svg>